<svg viewBox="0 0 100 100" xmlns="http://www.w3.org/2000/svg">
  <!-- rails -->
  <path
    d="M 0,40
        L 100,40
        L 100,30
        L 0,30"
  />
  <path
    d="M 0,60
        L 100,60
        L 100,70
        L 0,70"
  />
  <!-- tracks -->
  <path
    d="M 0,25
        L 0,75
        L 2.5,75
        L 2.5,25"
  />
  <path
    d="M 10,25
        L 10,75
        L 15,75
        L 15,25"
  />
  <path
    d="M 25,25
        L 25,75
        L 30,75
        L 30,25"
  />
  <path
    d="M 40,25
        L 40,75
        L 45,75
        L 45,25"
  />
  <path
    d="M 55,25
        L 55,75
        L 60,75
        L 60,25"
  />
  <path
    d="M 70,25
        L 70,75
        L 75,75
        L 75,25"
  />
  <path
    d="M 85,25
      L 85,75
      L 90,75
      L 90,25"
  />
  <path
    d="M 97.5,25
        L 97.5,75
        L 100,75
        L 100,25"
  />
</svg>
