<?xml version="1.0" encoding="UTF-8" standalone="no"?>
<!-- Created with Inkscape (http://www.inkscape.org/) -->
<svg xmlns:dc="http://purl.org/dc/elements/1.1/" xmlns:cc="http://creativecommons.org/ns#" xmlns:rdf="http://www.w3.org/1999/02/22-rdf-syntax-ns#" xmlns:svg="http://www.w3.org/2000/svg" xmlns="http://www.w3.org/2000/svg" xmlns:sodipodi="http://sodipodi.sourceforge.net/DTD/sodipodi-0.dtd" xmlns:inkscape="http://www.inkscape.org/namespaces/inkscape" width="100" height="100" viewBox="0 0 99.999996 99.999996" id="svg8480" version="1.1" inkscape:version="0.92.1 r15371" sodipodi:docname="Toulouse_&quot;Train&quot;_symbol.svg">
  <defs id="defs8482"/>
  <sodipodi:namedview id="base" pagecolor="#ffffff" bordercolor="#666666" borderopacity="1.0" inkscape:pageopacity="0.0" inkscape:pageshadow="2" inkscape:zoom="7.9195959" inkscape:cx="54.988017" inkscape:cy="59.287124" inkscape:document-units="px" inkscape:current-layer="layer1" showgrid="false" fit-margin-top="0" fit-margin-left="0" fit-margin-right="0" fit-margin-bottom="0" inkscape:window-width="1366" inkscape:window-height="697" inkscape:window-x="0" inkscape:window-y="27" inkscape:window-maximized="1" units="px"/>
  <metadata id="metadata8485">
    <rdf:RDF>
      <cc:Work rdf:about="">
        <dc:format>image/svg+xml</dc:format>
        <dc:type rdf:resource="http://purl.org/dc/dcmitype/StillImage"/>
        <dc:title/>
      </cc:Work>
    </rdf:RDF>
  </metadata>
  <g inkscape:label="Calque 1" inkscape:groupmode="layer" id="layer1" transform="translate(571.74585,-221.24964)">
    <g id="g658" transform="matrix(26.432649,0,0,-26.529328,-505.46213,290.78118)" style="fill:#283a7d;fill-opacity:1">
      <path d="m 0,0 c -0.135,0 -0.246,0.111 -0.246,0.246 0,0.135 0.111,0.245 0.246,0.245 0.136,0 0.245,-0.11 0.245,-0.245 C 0.245,0.111 0.136,0 0,0 m -1.306,0 c -0.135,0 -0.245,0.111 -0.245,0.246 0,0.135 0.11,0.245 0.245,0.245 0.136,0 0.246,-0.11 0.246,-0.245 C -1.06,0.111 -1.17,0 -1.306,0 m -0.24,1.852 c 0,0.131 0.106,0.238 0.238,0.238 h 1.31 C 0.133,2.09 0.24,1.983 0.24,1.852 V 1.45 C 0.24,1.32 0.133,1.213 0.002,1.213 h -1.31 c -0.132,0 -0.238,0.107 -0.238,0.237 z m 0.544,0.561 c 0,0.053 0.043,0.095 0.096,0.095 h 0.507 c 0.052,0 0.095,-0.042 0.095,-0.095 V 2.262 c 0,-0.052 -0.043,-0.095 -0.095,-0.095 h -0.507 c -0.053,0 -0.096,0.043 -0.096,0.095 z M 0.045,2.604 H -1.35 c -0.262,0 -0.474,-0.212 -0.474,-0.474 V 0.2 c 0,-0.262 0.212,-0.475 0.474,-0.475 h 1.395 c 0.261,0 0.473,0.213 0.473,0.475 v 1.93 c 0,0.262 -0.212,0.474 -0.473,0.474" style="fill:#283a7d;fill-opacity:1;fill-rule:nonzero;stroke:none" id="path660" inkscape:connector-curvature="0"/>
    </g>
    <g id="g662" transform="matrix(26.432649,0,0,-26.529328,-548.59744,320.81494)" style="fill:#283a7d;fill-opacity:1">
      <path d="M 0,0 0.6,0.917 0.347,1.082 -0.359,0 Z" style="fill:#283a7d;fill-opacity:1;fill-rule:nonzero;stroke:none" id="path664" inkscape:connector-curvature="0"/>
    </g>
    <g id="g666" transform="matrix(26.432649,0,0,-26.529328,-487.33717,320.81494)" style="fill:#283a7d;fill-opacity:1">
      <path d="M 0,0 -0.707,1.082 -0.959,0.917 -0.36,0 Z" style="fill:#283a7d;fill-opacity:1;fill-rule:nonzero;stroke:none" id="path668" inkscape:connector-curvature="0"/>
    </g>
    <path d="m -506.08595,294.17165 h -32.90862 v 10.37298 h 32.90862 z" style="fill:#283a7d;fill-opacity:1;fill-rule:nonzero;stroke:none;stroke-width:1.3464843" id="path670" inkscape:connector-curvature="0"/>
    <path style="fill:#a774f4;stroke-width:0.48088726" d="m -557.25676,319.92397 c 0.26709,-0.46285 3.5993,-5.60171 7.40494,-11.41968 l 6.91932,-10.57809 -2.12592,-0.80699 c -3.01076,-1.14286 -5.20537,-2.95875 -6.74852,-5.58389 l -1.33316,-2.26792 -0.13471,-28.73041 c -0.13353,-28.48027 -0.12571,-28.75134 0.89905,-31.13343 0.56856,-1.32166 1.89738,-3.18326 2.95291,-4.13687 3.77708,-3.41237 3.07288,-3.3235 26.3382,-3.3235 15.95145,0 21.33778,0.14861 22.68396,0.62587 2.89919,1.02785 5.3596,3.13567 6.89061,5.90319 l 1.44267,2.60779 v 28.37234 c 0,26.29732 -0.0641,28.53844 -0.87622,30.64317 -1.06225,2.75297 -4.88191,6.36713 -7.58512,7.17703 -1.03276,0.30943 -1.87775,0.61968 -1.87775,0.68942 0,0.0699 3.24599,5.10928 7.21331,11.19889 3.96733,6.08963 7.21332,11.20001 7.21332,11.35639 0,0.15639 -1.97597,0.22211 -4.39104,0.14607 l -4.39104,-0.13827 -5.17943,-7.93464 -5.17943,-7.93464 -15.55589,-0.11864 -15.55589,-0.11863 -5.28977,8.17196 -5.28976,8.17195 -4.46512,10e-4 c -4.11712,10e-4 -4.42729,-0.0639 -3.97952,-0.83991 z m 20.75638,-30.06504 c 5.38103,-3.59477 3.58739,-11.42226 -2.79589,-12.2013 -2.32436,-0.28368 -4.80083,0.9605 -6.26027,3.14514 -3.78459,5.66517 3.39098,12.84074 9.05616,9.05616 z m 33.83148,0.41041 c 2.80867,-1.17353 4.40598,-4.69674 3.54427,-7.81761 -0.918,-3.32468 -4.63648,-5.57521 -7.87062,-4.76348 -0.67589,0.16964 -2.00356,1.01837 -2.9504,1.88607 -3.29747,3.02191 -2.54963,8.63285 1.41083,10.58529 1.94122,0.95698 3.75688,0.99094 5.86592,0.1097 z m 0.59972,-32.48058 c 2.65305,-1.61766 3.02911,-2.97623 3.0271,-10.93578 -10e-4,-6.21033 -0.12139,-7.31309 -0.94051,-8.6565 -1.88124,-3.08535 -1.79645,-3.07471 -23.31056,-2.9243 l -19.43132,0.13586 -1.30248,1.20221 c -2.18129,2.01341 -2.62117,3.74062 -2.62117,10.29232 0,3.29739 0.2308,6.60443 0.51292,7.34898 0.61808,1.63131 2.25837,3.4763 3.57463,4.02073 0.52896,0.2188 9.50952,0.41073 19.95681,0.4265 18.02098,0.0271 19.074,-0.0195 20.53458,-0.91002 z m -12.84039,-24.68445 c 1.09752,-0.55361 1.21472,-0.91851 1.34573,-4.19009 0.11845,-2.9581 -0.002,-3.69046 -0.69302,-4.19536 -0.5943,-0.43456 -3.06165,-0.61169 -8.52117,-0.61169 -9.28768,0 -9.44728,0.0765 -9.43612,4.52275 0.008,3.16234 0.20146,3.68436 1.67575,4.52037 1.37371,0.77898 14.06742,0.74164 15.62883,-0.0459 z" id="path26" inkscape:connector-curvature="0"/>
  </g>
</svg>