<svg viewBox="0 0 100 100" xmlns="http://www.w3.org/2000/svg">
  <path
    d="M 0,70
        A 70,70 0,0,0 70,0
        L 60,0
        A 60,60 0,0,1 0,60"
  />
  <path
    d="M 0,40
        A 40,40 0,0,0 40,0
        L 30,0
        A 30,30 0,0,1 0,30"
  />
  <!-- tracks -->
  <path
    d="M 3.910861626005772,24.692208514878445
    L 11.732584878017315,74.07662554463533
    L 17.508402289192908,72.92774402982575
    L 5.836134096397635,24.309248009941914"
  />
  <path
    d="M 9.567085809127244,23.09698831278217
    L 28.701257427381734,69.2909649383465
    L 34.049287480466006,66.8254893141276
    L 11.349762493488669,22.275163104709197"
  />
  <path
    d="M 14.694631307311829,20.225424859373685
    L 44.083893921935484,60.67627457812106
    L 48.708603624763775,57.030447420002325
    L 16.23620120825459,19.010149140000777"
  />
  <path
    d="M 19.010149140000777,16.23620120825459
    L 57.030447420002325,48.708603624763775
    L 60.67627457812106,44.083893921935484
    L 20.225424859373685,14.694631307311829"
  />
  <path
    d="M 22.275163104709193,11.34976249348867
    L 66.82548931412758,34.04928748046601
    L 69.2909649383465,28.701257427381737
    L 23.09698831278217,9.567085809127246"
  />
  <path
    d="M 24.309248009941914,5.836134096397636
    L 72.92774402982575,17.508402289192908
    L 74.07662554463533,11.732584878017319
    L 24.692208514878445,3.910861626005773"
  />
</svg>
