<svg viewBox="0 0 100 100" xmlns="http://www.w3.org/2000/svg">
  <!-- rails -->
  <path
    d="M 0,40
        L 100,40
        L 100,30
        L 0,30"
  />
  <path
    d="M 0,60
        L 100,60
        L 100,70
        L 0,70"
  />
  <!-- <path
    d="M 0,70
            A 70,70 0,0,0 70,0
            L 60,0
            A 60,60 0,0,1 0,60"
  /> -->
  <path
    d="M 0,40
            A 40,40 0,0,0 40,0
            L 30,0
            A 30,30 0,0,1 0,30"
  />
  <!-- <path
    d="M 100,70
        A 70,70 0,0,1 30,0
        L 40,0
        A 60,60 0,0,0 100,60"
  /> -->
  <path
    d="M 100,40
        A 40,40 0,0,1 60,0
        L 70,0
        A 30,30 0,0,0 100,30"
  />
  <!-- tracks -->
  <path
    d="M 3.910861626005772,24.692208514878445
    L 11.732584878017315,74.07662554463533
    L 17.508402289192908,72.92774402982575
    L 5.836134096397635,24.309248009941914"
  />
  <path
    d="M 9.567085809127244,23.09698831278217
    L 28.701257427381734,69.2909649383465
    L 34.049287480466006,66.8254893141276
    L 11.349762493488669,22.275163104709197"
  />
  <path
    d="M 14.694631307311829,20.225424859373685
    L 44.083893921935484,60.67627457812106
    L 48.708603624763775,57.030447420002325
    L 16.23620120825459,19.010149140000777"
  />
  <path
    d="M 19.010149140000777,16.23620120825459
    L 57.030447420002325,48.708603624763775
    L 60.67627457812106,44.083893921935484
    L 20.225424859373685,14.694631307311829"
  />
  <path
    d="M 22.275163104709193,11.34976249348867
    L 66.82548931412758,34.04928748046601
    L 69.2909649383465,28.701257427381737
    L 23.09698831278217,9.567085809127246"
  />
  <path
    d="M 24.309248009941914,5.836134096397636
    L 72.92774402982575,17.508402289192908
    L 74.07662554463533,11.732584878017319
    L 24.692208514878445,3.910861626005773"
  />
  <!-- reverse tracks -->
  <path
    d="M 96.08913837399423,24.692208514878445
    L 88.26741512198268,74.07662554463533
    L 82.4915977108071,72.92774402982575
    L 94.16386590360237,24.309248009941914"
  />
  <path
    d="M 90.43291419087275,23.09698831278217
    L 71.29874257261827,69.2909649383465
    L 65.950712519534,66.8254893141276
    L 88.65023750651133,22.275163104709197"
  />
  <path
    d="M 85.30536869268818,20.225424859373685
    L 55.916106078064516,60.67627457812106
    L 51.291396375236225,57.03044742000232
    L 83.76379879174542,19.010149140000774"
  />
  <path
    d="M 80.98985085999922,16.236201208254588
    L 42.969552579997675,48.70860362476377
    L 39.32372542187894,44.08389392193548
    L 79.77457514062631,14.694631307311825"
  />
  <path
    d="M 77.7248368952908,11.349762493488672
    L 33.17451068587242,34.04928748046601
    L 30.709035061653495,28.701257427381737
    L 76.90301168721783,9.567085809127246"
  />
  <path
    d="M 75.69075199005809,5.836134096397637
    L 27.072255970174254,17.50840228919291
    L 25.923374455364666,11.732584878017319
    L 75.30779148512156,3.910861626005773"
  />
  <!-- tracks -->
  <path
    d="M 10,25
        L 10,75
        L 15,75
        L 15,25"
  />
  <path
    d="M 25,25
        L 25,75
        L 30,75
        L 30,25"
  />
  <path
    d="M 40,25
        L 40,75
        L 45,75
        L 45,25"
  />
  <path
    d="M 55,25
        L 55,75
        L 60,75
        L 60,25"
  />
  <path
    d="M 70,25
        L 70,75
        L 75,75
        L 75,25"
  />
  <path
    d="M 85,25
      L 85,75
      L 90,75
      L 90,25"
  />
</svg>
